<?xml version="1.0" encoding="UTF-8" standalone="no"?>
<!DOCTYPE svg PUBLIC "-//W3C//DTD SVG 1.1//EN"
 "http://www.w3.org/Graphics/SVG/1.1/DTD/svg11.dtd">
<!-- Generated by graphviz version 2.43.0 (0)
 -->
<!-- Title: SemanticVLMPipeline Pages: 1 -->
<svg width="1457pt" height="938pt"
 viewBox="0.00 0.00 1456.70 938.20" xmlns="http://www.w3.org/2000/svg" xmlns:xlink="http://www.w3.org/1999/xlink">
<g id="graph0" class="graph" transform="scale(1 1) rotate(0) translate(21.6 916.6)">
<title>SemanticVLMPipeline</title>
<polygon fill="white" stroke="transparent" points="-21.6,21.6 -21.6,-916.6 1435.1,-916.6 1435.1,21.6 -21.6,21.6"/>
<g id="clust1" class="cluster">
<title>cluster_semantic</title>
<path fill="white" stroke="#f3b5c6" stroke-dasharray="5,2" d="M146.5,-396C146.5,-396 551.5,-396 551.5,-396 557.5,-396 563.5,-402 563.5,-408 563.5,-408 563.5,-642 563.5,-642 563.5,-648 557.5,-654 551.5,-654 551.5,-654 146.5,-654 146.5,-654 140.5,-654 134.5,-648 134.5,-642 134.5,-642 134.5,-408 134.5,-408 134.5,-402 140.5,-396 146.5,-396"/>
<text text-anchor="middle" x="349" y="-638.8" font-family="DejaVu Sans" font-size="14.00">Semantic Layer</text>
</g>
<g id="clust2" class="cluster">
<title>cluster_geometry</title>
<path fill="white" stroke="#a9c7f5" stroke-dasharray="5,2" d="M635.5,-531C635.5,-531 885.5,-531 885.5,-531 891.5,-531 897.5,-537 897.5,-543 897.5,-543 897.5,-796 897.5,-796 897.5,-802 891.5,-808 885.5,-808 885.5,-808 635.5,-808 635.5,-808 629.5,-808 623.5,-802 623.5,-796 623.5,-796 623.5,-543 623.5,-543 623.5,-537 629.5,-531 635.5,-531"/>
<text text-anchor="middle" x="760.5" y="-792.8" font-family="DejaVu Sans" font-size="14.00">Geometry / Grasp Layer</text>
</g>
<g id="clust3" class="cluster">
<title>cluster_planning</title>
<path fill="white" stroke="#c8b5f7" stroke-dasharray="5,2" d="M49.5,-8C49.5,-8 663.5,-8 663.5,-8 669.5,-8 675.5,-14 675.5,-20 675.5,-20 675.5,-353 675.5,-353 675.5,-359 669.5,-365 663.5,-365 663.5,-365 49.5,-365 49.5,-365 43.5,-365 37.5,-359 37.5,-353 37.5,-353 37.5,-20 37.5,-20 37.5,-14 43.5,-8 49.5,-8"/>
<text text-anchor="middle" x="356.5" y="-349.8" font-family="DejaVu Sans" font-size="14.00">Planning / Execution Layer</text>
</g>
<!-- cmd -->
<g id="node1" class="node">
<title>cmd</title>
<path fill="#fff4cc" stroke="#2b2f36" stroke-width="1.2" d="M543.5,-759C543.5,-759 403.5,-759 403.5,-759 397.5,-759 391.5,-753 391.5,-747 391.5,-747 391.5,-723 391.5,-723 391.5,-717 397.5,-711 403.5,-711 403.5,-711 543.5,-711 543.5,-711 549.5,-711 555.5,-717 555.5,-723 555.5,-723 555.5,-747 555.5,-747 555.5,-753 549.5,-759 543.5,-759"/>
<text text-anchor="middle" x="473.5" y="-744.2" font-family="DejaVu Sans" font-size="11.00">User Command</text>
<text text-anchor="middle" x="473.5" y="-732.2" font-family="DejaVu Sans" font-size="11.00">Input: /vlm/task_command</text>
<text text-anchor="middle" x="473.5" y="-720.2" font-family="DejaVu Sans" font-size="11.00">Example: 抓最右边那罐可乐</text>
</g>
<!-- global_vlm -->
<g id="node5" class="node">
<title>global_vlm</title>
<path fill="#fde7ef" stroke="#2b2f36" stroke-width="1.2" d="M543.5,-623C543.5,-623 355.5,-623 355.5,-623 349.5,-623 343.5,-617 343.5,-611 343.5,-611 343.5,-551 343.5,-551 343.5,-545 349.5,-539 355.5,-539 355.5,-539 543.5,-539 543.5,-539 549.5,-539 555.5,-545 555.5,-551 555.5,-551 555.5,-611 555.5,-611 555.5,-617 549.5,-623 543.5,-623"/>
<text text-anchor="middle" x="449.5" y="-608.2" font-family="DejaVu Sans" font-size="11.00">Global VLM Target Node</text>
<text text-anchor="middle" x="449.5" y="-596.2" font-family="DejaVu Sans" font-size="11.00">File: global_vlm_target_node.py</text>
<text text-anchor="middle" x="449.5" y="-584.2" font-family="DejaVu Sans" font-size="11.00">In: command + global RGB</text>
<text text-anchor="middle" x="449.5" y="-572.2" font-family="DejaVu Sans" font-size="11.00">Out: /sam/prompt_bbox</text>
<text text-anchor="middle" x="449.5" y="-560.2" font-family="DejaVu Sans" font-size="11.00"> &#160;&#160;&#160;&#160;/vlm/global_target</text>
<text text-anchor="middle" x="449.5" y="-548.2" font-family="DejaVu Sans" font-size="11.00">Algo: Qwen&#45;VL zero&#45;shot grounding</text>
</g>
<!-- cmd&#45;&gt;global_vlm -->
<g id="edge1" class="edge">
<title>cmd&#45;&gt;global_vlm</title>
<path fill="none" stroke="#5b6270" stroke-width="1.1" d="M415.93,-710.99C382.13,-696.91 345.15,-680.24 340.5,-673 330.28,-657.07 336,-642.51 349.01,-629.93"/>
<polygon fill="#5b6270" stroke="#5b6270" stroke-width="1.1" points="351.61,-632.31 356.93,-623.15 347.06,-626.99 351.61,-632.31"/>
<text text-anchor="middle" x="390.5" y="-665" font-family="DejaVu Sans" font-size="10.00">/vlm/task_command</text>
</g>
<!-- rgb -->
<g id="node2" class="node">
<title>rgb</title>
<path fill="#eef6ff" stroke="#2b2f36" stroke-width="1.2" d="M678,-889C678,-889 509,-889 509,-889 503,-889 497,-883 497,-877 497,-877 497,-865 497,-865 497,-859 503,-853 509,-853 509,-853 678,-853 678,-853 684,-853 690,-859 690,-865 690,-865 690,-877 690,-877 690,-883 684,-889 678,-889"/>
<text text-anchor="middle" x="593.5" y="-874.2" font-family="DejaVu Sans" font-size="11.00">Global RGB</text>
<text text-anchor="middle" x="593.5" y="-862.2" font-family="DejaVu Sans" font-size="11.00">Input: /camera/color/image_raw</text>
</g>
<!-- rgb&#45;&gt;global_vlm -->
<g id="edge2" class="edge">
<title>rgb&#45;&gt;global_vlm</title>
<path fill="none" stroke="#5b6270" stroke-width="1.1" d="M496.64,-863.4C417.48,-855.75 314.53,-839.85 288.5,-808 256.16,-768.42 265.73,-738.76 288.5,-693 293.44,-683.07 335.31,-654.34 375.1,-628.6"/>
<polygon fill="#5b6270" stroke="#5b6270" stroke-width="1.1" points="377.04,-631.52 383.55,-623.17 373.25,-625.64 377.04,-631.52"/>
<text text-anchor="middle" x="334" y="-732.5" font-family="DejaVu Sans" font-size="10.00">global shelf image</text>
</g>
<!-- sam -->
<g id="node6" class="node">
<title>sam</title>
<path fill="#e7f2ff" stroke="#2b2f36" stroke-width="1.2" d="M876.5,-777C876.5,-777 644.5,-777 644.5,-777 638.5,-777 632.5,-771 632.5,-765 632.5,-765 632.5,-705 632.5,-705 632.5,-699 638.5,-693 644.5,-693 644.5,-693 876.5,-693 876.5,-693 882.5,-693 888.5,-699 888.5,-705 888.5,-705 888.5,-765 888.5,-765 888.5,-771 882.5,-777 876.5,-777"/>
<text text-anchor="middle" x="760.5" y="-762.2" font-family="DejaVu Sans" font-size="11.00">SAM Perception Node</text>
<text text-anchor="middle" x="760.5" y="-750.2" font-family="DejaVu Sans" font-size="11.00">File: sam_node.py</text>
<text text-anchor="middle" x="760.5" y="-738.2" font-family="DejaVu Sans" font-size="11.00">In: bbox + RGB&#45;D</text>
<text text-anchor="middle" x="760.5" y="-726.2" font-family="DejaVu Sans" font-size="11.00">Out: /sam_perception/object_cloud</text>
<text text-anchor="middle" x="760.5" y="-714.2" font-family="DejaVu Sans" font-size="11.00"> &#160;&#160;&#160;&#160;/sam_perception/background_cloud</text>
<text text-anchor="middle" x="760.5" y="-702.2" font-family="DejaVu Sans" font-size="11.00">Algo: SAM mask + depth lifting + object_id</text>
</g>
<!-- rgb&#45;&gt;sam -->
<g id="edge5" class="edge">
<title>rgb&#45;&gt;sam</title>
<path fill="none" stroke="#5b6270" stroke-width="1.1" d="M614.99,-852.76C636.74,-835.3 671.36,-807.53 701.37,-783.44"/>
<polygon fill="#5b6270" stroke="#5b6270" stroke-width="1.1" points="703.69,-786.07 709.3,-777.09 699.31,-780.61 703.69,-786.07"/>
<text text-anchor="middle" x="667.5" y="-819" font-family="DejaVu Sans" font-size="10.00">RGB</text>
</g>
<!-- reranker -->
<g id="node9" class="node">
<title>reranker</title>
<path fill="#fde7ef" stroke="#2b2f36" stroke-width="1.2" d="M543.5,-488C543.5,-488 291.5,-488 291.5,-488 285.5,-488 279.5,-482 279.5,-476 279.5,-476 279.5,-416 279.5,-416 279.5,-410 285.5,-404 291.5,-404 291.5,-404 543.5,-404 543.5,-404 549.5,-404 555.5,-410 555.5,-416 555.5,-416 555.5,-476 555.5,-476 555.5,-482 549.5,-488 543.5,-488"/>
<text text-anchor="middle" x="417.5" y="-473.2" font-family="DejaVu Sans" font-size="11.00">Semantic Reranker</text>
<text text-anchor="middle" x="417.5" y="-461.2" font-family="DejaVu Sans" font-size="11.00">File: semantic_reranker.py</text>
<text text-anchor="middle" x="417.5" y="-449.2" font-family="DejaVu Sans" font-size="11.00">In: raw candidates + /vlm/global_target + RGB</text>
<text text-anchor="middle" x="417.5" y="-437.2" font-family="DejaVu Sans" font-size="11.00">Out: /graspnet/grasp_pose_array_semantic</text>
<text text-anchor="middle" x="417.5" y="-425.2" font-family="DejaVu Sans" font-size="11.00"> &#160;&#160;&#160;&#160;/graspnet/grasp_info_semantic</text>
<text text-anchor="middle" x="417.5" y="-413.2" font-family="DejaVu Sans" font-size="11.00">Algo: Candidate projection + VLM comparison</text>
</g>
<!-- rgb&#45;&gt;reranker -->
<g id="edge11" class="edge">
<title>rgb&#45;&gt;reranker</title>
<path fill="none" stroke="#5b6270" stroke-width="1.1" d="M594.29,-852.58C596.76,-791.15 602.28,-585.39 568.5,-531 559.44,-516.41 546.87,-504.14 532.83,-493.89"/>
<polygon fill="#5b6270" stroke="#5b6270" stroke-width="1.1" points="534.62,-490.88 524.4,-488.08 530.65,-496.64 534.62,-490.88"/>
<text text-anchor="middle" x="604.5" y="-665" font-family="DejaVu Sans" font-size="10.00">RGB</text>
</g>
<!-- depth -->
<g id="node3" class="node">
<title>depth</title>
<path fill="#eef6ff" stroke="#2b2f36" stroke-width="1.2" d="M1138,-895C1138,-895 965,-895 965,-895 959,-895 953,-889 953,-883 953,-883 953,-859 953,-859 953,-853 959,-847 965,-847 965,-847 1138,-847 1138,-847 1144,-847 1150,-853 1150,-859 1150,-859 1150,-883 1150,-883 1150,-889 1144,-895 1138,-895"/>
<text text-anchor="middle" x="1051.5" y="-880.2" font-family="DejaVu Sans" font-size="11.00">Depth + CameraInfo</text>
<text text-anchor="middle" x="1051.5" y="-868.2" font-family="DejaVu Sans" font-size="11.00">Input: /camera/depth/image_raw</text>
<text text-anchor="middle" x="1051.5" y="-856.2" font-family="DejaVu Sans" font-size="11.00">/camera/color/camera_info</text>
</g>
<!-- depth&#45;&gt;sam -->
<g id="edge6" class="edge">
<title>depth&#45;&gt;sam</title>
<path fill="none" stroke="#5b6270" stroke-width="1.1" d="M1001.48,-846.96C962.39,-828.97 906.86,-803.39 858.95,-781.33"/>
<polygon fill="#5b6270" stroke="#5b6270" stroke-width="1.1" points="860.33,-778.12 849.79,-777.12 857.41,-784.48 860.33,-778.12"/>
<text text-anchor="middle" x="1000" y="-819" font-family="DejaVu Sans" font-size="10.00">depth + intrinsics</text>
</g>
<!-- depth&#45;&gt;reranker -->
<g id="edge12" class="edge">
<title>depth&#45;&gt;reranker</title>
<path fill="none" stroke="#5b6270" stroke-width="1.1" d="M1079.11,-846.86C1146.06,-788.07 1305.17,-630.61 1215.5,-531 1172.95,-483.74 785.1,-461.16 566.19,-452.1"/>
<polygon fill="#5b6270" stroke="#5b6270" stroke-width="1.1" points="566.03,-448.59 555.89,-451.68 565.74,-455.58 566.03,-448.59"/>
<text text-anchor="middle" x="1258" y="-665" font-family="DejaVu Sans" font-size="10.00">camera_info</text>
</g>
<!-- wrist_rgb -->
<g id="node4" class="node">
<title>wrist_rgb</title>
<path fill="#eef6ff" stroke="#2b2f36" stroke-width="1.2" d="M213,-753C213,-753 12,-753 12,-753 6,-753 0,-747 0,-741 0,-741 0,-729 0,-729 0,-723 6,-717 12,-717 12,-717 213,-717 213,-717 219,-717 225,-723 225,-729 225,-729 225,-741 225,-741 225,-747 219,-753 213,-753"/>
<text text-anchor="middle" x="112.5" y="-738.2" font-family="DejaVu Sans" font-size="11.00">Wrist RGB</text>
<text text-anchor="middle" x="112.5" y="-726.2" font-family="DejaVu Sans" font-size="11.00">Input: /wrist_camera/color/image_raw</text>
</g>
<!-- wrist_vlm -->
<g id="node12" class="node">
<title>wrist_vlm</title>
<path fill="#fde7ef" stroke="#2b2f36" stroke-width="1.2" d="M306,-617C306,-617 155,-617 155,-617 149,-617 143,-611 143,-605 143,-605 143,-557 143,-557 143,-551 149,-545 155,-545 155,-545 306,-545 306,-545 312,-545 318,-551 318,-557 318,-557 318,-605 318,-605 318,-611 312,-617 306,-617"/>
<text text-anchor="middle" x="230.5" y="-602.2" font-family="DejaVu Sans" font-size="11.00">Wrist VLM Node</text>
<text text-anchor="middle" x="230.5" y="-590.2" font-family="DejaVu Sans" font-size="11.00">File: wrist_vlm_node.py</text>
<text text-anchor="middle" x="230.5" y="-578.2" font-family="DejaVu Sans" font-size="11.00">In: wrist RGB + trigger</text>
<text text-anchor="middle" x="230.5" y="-566.2" font-family="DejaVu Sans" font-size="11.00">Out: /wrist_vlm/bbox</text>
<text text-anchor="middle" x="230.5" y="-554.2" font-family="DejaVu Sans" font-size="11.00">Algo: Local target grounding</text>
</g>
<!-- wrist_rgb&#45;&gt;wrist_vlm -->
<g id="edge16" class="edge">
<title>wrist_rgb&#45;&gt;wrist_vlm</title>
<path fill="none" stroke="#5b6270" stroke-width="1.1" d="M125.81,-716.86C142.96,-694.76 173.39,-655.57 197.03,-625.11"/>
<polygon fill="#5b6270" stroke="#5b6270" stroke-width="1.1" points="199.83,-627.22 203.2,-617.17 194.3,-622.92 199.83,-627.22"/>
<text text-anchor="middle" x="196.5" y="-665" font-family="DejaVu Sans" font-size="10.00">wrist image</text>
</g>
<!-- global_vlm&#45;&gt;sam -->
<g id="edge3" class="edge">
<title>global_vlm&#45;&gt;sam</title>
<path fill="none" stroke="#5b6270" stroke-width="1.1" d="M449.5,-623.03C451.65,-640.64 457.26,-660.1 470.5,-673 502.33,-704.03 524.99,-683.91 568.5,-693 586.04,-696.66 604.46,-700.55 622.68,-704.41"/>
<polygon fill="#5b6270" stroke="#5b6270" stroke-width="1.1" points="621.96,-707.84 632.47,-706.49 623.41,-700.99 621.96,-707.84"/>
<text text-anchor="middle" x="516.5" y="-665" font-family="DejaVu Sans" font-size="10.00">/sam/prompt_bbox</text>
</g>
<!-- global_vlm&#45;&gt;reranker -->
<g id="edge4" class="edge">
<title>global_vlm&#45;&gt;reranker</title>
<path fill="none" stroke="#5b6270" stroke-width="1.1" d="M439.55,-538.65C436.48,-525.89 433.06,-511.68 429.85,-498.33"/>
<polygon fill="#5b6270" stroke="#5b6270" stroke-width="1.1" points="433.19,-497.23 427.44,-488.33 426.38,-498.87 433.19,-497.23"/>
<text text-anchor="middle" x="478.5" y="-511" font-family="DejaVu Sans" font-size="10.00">/vlm/global_target</text>
</g>
<!-- metadata -->
<g id="node7" class="node">
<title>metadata</title>
<path fill="#e7f2ff" stroke="#2b2f36" stroke-width="1.2" d="M1191,-605C1191,-605 926,-605 926,-605 920,-605 914,-599 914,-593 914,-593 914,-569 914,-569 914,-563 920,-557 926,-557 926,-557 1191,-557 1191,-557 1197,-557 1203,-563 1203,-569 1203,-569 1203,-593 1203,-593 1203,-599 1197,-605 1191,-605"/>
<text text-anchor="middle" x="1058.5" y="-590.2" font-family="DejaVu Sans" font-size="11.00">Object Metadata</text>
<text text-anchor="middle" x="1058.5" y="-578.2" font-family="DejaVu Sans" font-size="11.00">Topic: /sam_perception/object_metadata</text>
<text text-anchor="middle" x="1058.5" y="-566.2" font-family="DejaVu Sans" font-size="11.00">Content: object_id &lt;&#45;&gt; source_bbox / mask_bbox</text>
</g>
<!-- sam&#45;&gt;metadata -->
<g id="edge9" class="edge">
<title>sam&#45;&gt;metadata</title>
<path fill="none" stroke="#5b6270" stroke-width="1.1" d="M869.49,-692.97C884.13,-686.68 898.81,-679.95 912.5,-673 948.95,-654.51 988.15,-629.78 1016.74,-610.77"/>
<polygon fill="#5b6270" stroke="#5b6270" stroke-width="1.1" points="1018.9,-613.54 1025.26,-605.07 1015.01,-607.72 1018.9,-613.54"/>
<text text-anchor="middle" x="973.5" y="-665" font-family="DejaVu Sans" font-size="10.00">explicit mapping</text>
</g>
<!-- graspnet -->
<g id="node8" class="node">
<title>graspnet</title>
<path fill="#e7f7ec" stroke="#2b2f36" stroke-width="1.2" d="M877,-623C877,-623 644,-623 644,-623 638,-623 632,-617 632,-611 632,-611 632,-551 632,-551 632,-545 638,-539 644,-539 644,-539 877,-539 877,-539 883,-539 889,-545 889,-551 889,-551 889,-611 889,-611 889,-617 883,-623 877,-623"/>
<text text-anchor="middle" x="760.5" y="-608.2" font-family="DejaVu Sans" font-size="11.00">GraspNet Node</text>
<text text-anchor="middle" x="760.5" y="-596.2" font-family="DejaVu Sans" font-size="11.00">File: grasp_from_sam.py</text>
<text text-anchor="middle" x="760.5" y="-584.2" font-family="DejaVu Sans" font-size="11.00">In: object_cloud(object&#45;wise)</text>
<text text-anchor="middle" x="760.5" y="-572.2" font-family="DejaVu Sans" font-size="11.00">Out: /graspnet/grasp_pose_array_raw</text>
<text text-anchor="middle" x="760.5" y="-560.2" font-family="DejaVu Sans" font-size="11.00"> &#160;&#160;&#160;&#160;/graspnet/grasp_info_raw</text>
<text text-anchor="middle" x="760.5" y="-548.2" font-family="DejaVu Sans" font-size="11.00">Algo: Per&#45;object GraspNet + center penalty</text>
</g>
<!-- sam&#45;&gt;graspnet -->
<g id="edge7" class="edge">
<title>sam&#45;&gt;graspnet</title>
<path fill="none" stroke="#5b6270" stroke-width="1.1" d="M760.5,-692.87C760.5,-674.53 760.5,-652.74 760.5,-633.35"/>
<polygon fill="#5b6270" stroke="#5b6270" stroke-width="1.1" points="764,-633.17 760.5,-623.17 757,-633.17 764,-633.17"/>
<text text-anchor="middle" x="833.5" y="-665" font-family="DejaVu Sans" font-size="10.00">/sam_perception/object_cloud</text>
</g>
<!-- octomap -->
<g id="node14" class="node">
<title>octomap</title>
<path fill="#f4f5f7" stroke="#2b2f36" stroke-width="1.2" d="M639,-64C639,-64 488,-64 488,-64 482,-64 476,-58 476,-52 476,-52 476,-28 476,-28 476,-22 482,-16 488,-16 488,-16 639,-16 639,-16 645,-16 651,-22 651,-28 651,-28 651,-52 651,-52 651,-58 645,-64 639,-64"/>
<text text-anchor="middle" x="563.5" y="-49.2" font-family="DejaVu Sans" font-size="11.00">MoveIt / Octomap Scene</text>
<text text-anchor="middle" x="563.5" y="-37.2" font-family="DejaVu Sans" font-size="11.00">In: background cloud refresh</text>
<text text-anchor="middle" x="563.5" y="-25.2" font-family="DejaVu Sans" font-size="11.00">Role: collision scene update</text>
</g>
<!-- sam&#45;&gt;octomap -->
<g id="edge8" class="edge">
<title>sam&#45;&gt;octomap</title>
<path fill="none" stroke="#5b6270" stroke-width="1.1" d="M888.61,-718.2C1014.32,-701.62 1190.71,-675.11 1215.5,-654 1241.29,-632.04 1240.5,-615.87 1240.5,-582 1240.5,-582 1240.5,-582 1240.5,-150 1240.5,-92.06 849.03,-59.21 661.45,-46.79"/>
<polygon fill="#5b6270" stroke="#5b6270" stroke-width="1.1" points="661.52,-43.29 651.31,-46.13 661.06,-50.28 661.52,-43.29"/>
<text text-anchor="middle" x="1327" y="-376" font-family="DejaVu Sans" font-size="10.00">/sam_perception/background_cloud</text>
</g>
<!-- metadata&#45;&gt;reranker -->
<g id="edge10" class="edge">
<title>metadata&#45;&gt;reranker</title>
<path fill="none" stroke="#5b6270" stroke-width="1.1" d="M992.3,-556.9C965.03,-547.96 932.98,-538.17 903.5,-531 791.4,-503.73 662.68,-481.89 565.89,-467.33"/>
<polygon fill="#5b6270" stroke="#5b6270" stroke-width="1.1" points="566.14,-463.83 555.73,-465.81 565.1,-470.75 566.14,-463.83"/>
<text text-anchor="middle" x="899" y="-511" font-family="DejaVu Sans" font-size="10.00">object_id&#45;bbox map</text>
</g>
<!-- graspnet&#45;&gt;reranker -->
<g id="edge13" class="edge">
<title>graspnet&#45;&gt;reranker</title>
<path fill="none" stroke="#5b6270" stroke-width="1.1" d="M681.6,-538.91C659.54,-528.17 635.34,-517.07 612.5,-508 597.27,-501.95 581.19,-496.1 565.07,-490.58"/>
<polygon fill="#5b6270" stroke="#5b6270" stroke-width="1.1" points="566.16,-487.25 555.57,-487.36 563.92,-493.88 566.16,-487.25"/>
<text text-anchor="middle" x="674" y="-511" font-family="DejaVu Sans" font-size="10.00">raw candidates</text>
</g>
<!-- scheduler -->
<g id="node10" class="node">
<title>scheduler</title>
<path fill="#f1ebff" stroke="#2b2f36" stroke-width="1.2" d="M655,-334C655,-334 342,-334 342,-334 336,-334 330,-328 330,-322 330,-322 330,-250 330,-250 330,-244 336,-238 342,-238 342,-238 655,-238 655,-238 661,-238 667,-244 667,-250 667,-250 667,-322 667,-322 667,-328 661,-334 655,-334"/>
<text text-anchor="middle" x="498.5" y="-319.2" font-family="DejaVu Sans" font-size="11.00">GTSP Scheduler</text>
<text text-anchor="middle" x="498.5" y="-307.2" font-family="DejaVu Sans" font-size="11.00">File: gtsp_scheduler.py</text>
<text text-anchor="middle" x="498.5" y="-295.2" font-family="DejaVu Sans" font-size="11.00">In: semantic grasp candidates</text>
<text text-anchor="middle" x="498.5" y="-283.2" font-family="DejaVu Sans" font-size="11.00">Out: /graspnet/grasp_pose_array</text>
<text text-anchor="middle" x="498.5" y="-271.2" font-family="DejaVu Sans" font-size="11.00"> &#160;&#160;&#160;&#160;/graspnet/grasp_info</text>
<text text-anchor="middle" x="498.5" y="-259.2" font-family="DejaVu Sans" font-size="11.00">Algo: IK filter + GA / GTSP</text>
<text text-anchor="middle" x="498.5" y="-247.2" font-family="DejaVu Sans" font-size="11.00">Cost: joint_cost / (1 + semantic_weight * semantic_score)</text>
</g>
<!-- reranker&#45;&gt;scheduler -->
<g id="edge14" class="edge">
<title>reranker&#45;&gt;scheduler</title>
<path fill="none" stroke="#5b6270" stroke-width="1.1" d="M438.57,-403.9C448.08,-385.35 459.47,-363.14 469.75,-343.08"/>
<polygon fill="#5b6270" stroke="#5b6270" stroke-width="1.1" points="472.94,-344.54 474.38,-334.04 466.71,-341.34 472.94,-344.54"/>
<text text-anchor="middle" x="503.5" y="-376" font-family="DejaVu Sans" font-size="10.00">semantic candidates</text>
</g>
<!-- demo -->
<g id="node11" class="node">
<title>demo</title>
<path fill="#fff2e5" stroke="#2b2f36" stroke-width="1.2" d="M621.5,-187C621.5,-187 359.5,-187 359.5,-187 353.5,-187 347.5,-181 347.5,-175 347.5,-175 347.5,-127 347.5,-127 347.5,-121 353.5,-115 359.5,-115 359.5,-115 621.5,-115 621.5,-115 627.5,-115 633.5,-121 633.5,-127 633.5,-127 633.5,-175 633.5,-175 633.5,-181 627.5,-187 621.5,-187"/>
<text text-anchor="middle" x="490.5" y="-172.2" font-family="DejaVu Sans" font-size="11.00">Pick&#45;Place Executor</text>
<text text-anchor="middle" x="490.5" y="-160.2" font-family="DejaVu Sans" font-size="11.00">File: demo.py</text>
<text text-anchor="middle" x="490.5" y="-148.2" font-family="DejaVu Sans" font-size="11.00">In: selected pose/info</text>
<text text-anchor="middle" x="490.5" y="-136.2" font-family="DejaVu Sans" font-size="11.00">Out: /demo/task_status</text>
<text text-anchor="middle" x="490.5" y="-124.2" font-family="DejaVu Sans" font-size="11.00">Algo: MoveIt planning + cartesian insert + place</text>
</g>
<!-- scheduler&#45;&gt;demo -->
<g id="edge15" class="edge">
<title>scheduler&#45;&gt;demo</title>
<path fill="none" stroke="#5b6270" stroke-width="1.1" d="M429.7,-237.87C424.45,-231.78 419.89,-225.14 416.5,-218 412.66,-209.91 413.44,-202.38 417.12,-195.52"/>
<polygon fill="#5b6270" stroke="#5b6270" stroke-width="1.1" points="420.13,-197.33 423.2,-187.19 414.47,-193.2 420.13,-197.33"/>
<text text-anchor="middle" x="461.5" y="-210" font-family="DejaVu Sans" font-size="10.00">selected pose/info</text>
</g>
<!-- demo&#45;&gt;scheduler -->
<g id="edge19" class="edge">
<title>demo&#45;&gt;scheduler</title>
<path fill="none" stroke="#5b6270" stroke-width="1.1" d="M503.8,-187.1C505.75,-193.62 507.46,-200.45 508.5,-207 509.57,-213.7 509.85,-220.74 509.6,-227.74"/>
<polygon fill="#5b6270" stroke="#5b6270" stroke-width="1.1" points="506.09,-227.69 508.89,-237.91 513.08,-228.18 506.09,-227.69"/>
<text text-anchor="middle" x="555" y="-210" font-family="DejaVu Sans" font-size="10.00">/demo/task_status</text>
</g>
<!-- demo&#45;&gt;octomap -->
<g id="edge20" class="edge">
<title>demo&#45;&gt;octomap</title>
<path fill="none" stroke="#5b6270" stroke-width="1.1" d="M514,-114.91C523.09,-101.33 533.43,-85.9 542.29,-72.67"/>
<polygon fill="#5b6270" stroke="#5b6270" stroke-width="1.1" points="545.22,-74.58 547.88,-64.33 539.4,-70.69 545.22,-74.58"/>
<text text-anchor="middle" x="581" y="-87" font-family="DejaVu Sans" font-size="10.00">refresh background</text>
</g>
<!-- wrist_align -->
<g id="node13" class="node">
<title>wrist_align</title>
<path fill="#fff2e5" stroke="#2b2f36" stroke-width="1.2" d="M293,-316C293,-316 58,-316 58,-316 52,-316 46,-310 46,-304 46,-304 46,-268 46,-268 46,-262 52,-256 58,-256 58,-256 293,-256 293,-256 299,-256 305,-262 305,-268 305,-268 305,-304 305,-304 305,-310 299,-316 293,-316"/>
<text text-anchor="middle" x="175.5" y="-301.2" font-family="DejaVu Sans" font-size="11.00">Wrist Fine Alignment</text>
<text text-anchor="middle" x="175.5" y="-289.2" font-family="DejaVu Sans" font-size="11.00">In: /wrist_vlm/bbox + wrist depth + TF</text>
<text text-anchor="middle" x="175.5" y="-277.2" font-family="DejaVu Sans" font-size="11.00">Out: world correction in demo.py</text>
<text text-anchor="middle" x="175.5" y="-265.2" font-family="DejaVu Sans" font-size="11.00">Algo: bbox ROI + depth band + TF mapping</text>
</g>
<!-- wrist_vlm&#45;&gt;wrist_align -->
<g id="edge17" class="edge">
<title>wrist_vlm&#45;&gt;wrist_align</title>
<path fill="none" stroke="#5b6270" stroke-width="1.1" d="M210.79,-544.84C202.4,-528.14 193.43,-507.58 188.5,-488 174.69,-433.09 173.15,-367.24 173.88,-326.25"/>
<polygon fill="#5b6270" stroke="#5b6270" stroke-width="1.1" points="177.38,-326.21 174.12,-316.13 170.38,-326.05 177.38,-326.21"/>
<text text-anchor="middle" x="228" y="-443.5" font-family="DejaVu Sans" font-size="10.00">/wrist_vlm/bbox</text>
</g>
<!-- wrist_align&#45;&gt;demo -->
<g id="edge18" class="edge">
<title>wrist_align&#45;&gt;demo</title>
<path fill="none" stroke="#5b6270" stroke-width="1.1" d="M230.69,-255.94C260.94,-240.52 299.35,-221.76 334.5,-207 347.84,-201.4 361.97,-195.87 376.06,-190.61"/>
<polygon fill="#5b6270" stroke="#5b6270" stroke-width="1.1" points="377.63,-193.76 385.8,-187.01 375.21,-187.19 377.63,-193.76"/>
<text text-anchor="middle" x="371" y="-210" font-family="DejaVu Sans" font-size="10.00">final correction</text>
</g>
</g>
</svg>
